<?xml version="1.0" encoding="UTF-8"?>
<svg id="Pen" xmlns="http://www.w3.org/2000/svg" viewBox="0 0 2048 2048">
  <defs>
    <style>
      .cls-1 {
        fill: #1c4e80;
      }

      .cls-2 {
        fill: #e66846;
      }

      .cls-3 {
        fill: #202020;
      }

      .cls-4 {
        fill: #008bcc;
      }

      .cls-5 {
        fill: #f1f1f1;
      }
    </style>
  </defs>
  <g>
    <rect class="cls-5" x="97.84" y="319.81" width="1043.25" height="1488.75"/>
    <path class="cls-3" d="m1166.09,1833.55H72.84V294.81h1093.25v1538.75Zm-1043.25-50h993.25V344.81H122.84v1438.75Z"/>
  </g>
  <rect class="cls-3" x="478.93" y="239.45" width="50" height="176.59"/>
  <rect class="cls-3" x="964.65" y="239.45" width="50" height="176.59"/>
  <rect class="cls-3" x="236.06" y="239.45" width="50" height="176.59"/>
  <rect class="cls-3" x="721.79" y="239.45" width="50" height="176.59"/>
  <rect class="cls-3" x="261.06" y="632.7" width="411.02" height="50"/>
  <rect class="cls-3" x="261.06" y="840.57" width="652.2" height="50"/>
  <rect class="cls-3" x="260.91" y="1048.43" width="411.02" height="50"/>
  <rect class="cls-3" x="260.91" y="1256.29" width="652.2" height="50"/>
  <rect class="cls-3" x="260.91" y="1464.16" width="411.02" height="50"/>
  <rect class="cls-4" x="1734.06" y="355.57" width="210.91" height="126.32" rx="20.72" ry="20.72" transform="translate(834.87 -1178.09) rotate(45)"/>
  <rect class="cls-1" x="1244.97" y="273.41" width="334.97" height="1144.76" rx="20.72" ry="20.72" transform="translate(1011.76 -751.03) rotate(45)"/>
  <rect class="cls-4" x="1537.65" y="517.58" width="334.97" height="71.05" transform="translate(890.53 -1043.71) rotate(45)"/>
  <path class="cls-2" d="m936.36,1145.06l24.15,9.22c66.26,25.3,118.16,77.19,143.46,143.46l9.19,24.08c5.76,15.08-2.04,32.42-17.37,38.65l-301.62,122.51c-12.59,5.11-24.68-7.01-19.53-19.58l123.11-301.03c6.26-15.3,23.57-23.05,38.62-17.3Z"/>
</svg>